<svg width="447" height="76" viewBox="0 0 447 76" xmlns="http://www.w3.org/2000/svg">
    <path d="M91.234 71.876a2.06 2.06 0 0 1 2.057 2.062A2.06 2.06 0 0 1 91.234 76a2.06 2.06 0 0 1-2.058-2.062 2.06 2.06 0 0 1 2.058-2.062zm-17.836 0a2.06 2.06 0 0 1 2.058 2.062A2.06 2.06 0 0 1 73.398 76a2.06 2.06 0 0 1-2.058-2.062 2.06 2.06 0 0 1 2.058-2.062zm-17.834 0a2.06 2.06 0 0 1 2.057 2.062A2.06 2.06 0 0 1 55.564 76a2.06 2.06 0 0 1-2.058-2.062 2.06 2.06 0 0 1 2.058-2.062zm-17.836 0a2.06 2.06 0 0 1 2.058 2.062A2.06 2.06 0 0 1 37.728 76a2.06 2.06 0 0 1-2.058-2.062 2.06 2.06 0 0 1 2.058-2.062zm-17.835 0a2.06 2.06 0 0 1 2.058 2.062A2.06 2.06 0 0 1 19.893 76a2.06 2.06 0 0 1-2.057-2.062 2.06 2.06 0 0 1 2.057-2.062zm-17.835 0a2.06 2.06 0 0 1 2.058 2.062A2.06 2.06 0 0 1 2.058 76 2.06 2.06 0 0 1 0 73.938a2.06 2.06 0 0 1 2.058-2.062zm266.157 0a2.06 2.06 0 0 1 2.058 2.062A2.06 2.06 0 0 1 268.215 76a2.06 2.06 0 0 1-2.057-2.062 2.06 2.06 0 0 1 2.057-2.062zm-17.835 0a2.06 2.06 0 0 1 2.058 2.062A2.06 2.06 0 0 1 250.38 76a2.06 2.06 0 0 1-2.058-2.062 2.06 2.06 0 0 1 2.058-2.062zm-17.836 0a2.06 2.06 0 0 1 2.058 2.062A2.06 2.06 0 0 1 232.544 76a2.06 2.06 0 0 1-2.058-2.062 2.06 2.06 0 0 1 2.058-2.062zm-17.835 0a2.06 2.06 0 0 1 2.058 2.062A2.06 2.06 0 0 1 214.709 76a2.06 2.06 0 0 1-2.058-2.062 2.06 2.06 0 0 1 2.058-2.062zm-17.836 0a2.06 2.06 0 0 1 2.058 2.062A2.06 2.06 0 0 1 196.873 76a2.06 2.06 0 0 1-2.058-2.062 2.06 2.06 0 0 1 2.058-2.062zm-17.835 0a2.06 2.06 0 0 1 2.058 2.062A2.06 2.06 0 0 1 179.038 76a2.06 2.06 0 0 1-2.058-2.062 2.06 2.06 0 0 1 2.058-2.062zm-17.836 0a2.06 2.06 0 0 1 2.058 2.062A2.06 2.06 0 0 1 161.202 76a2.06 2.06 0 0 1-2.058-2.062 2.06 2.06 0 0 1 2.058-2.062zm-17.835 0a2.06 2.06 0 0 1 2.058 2.062A2.06 2.06 0 0 1 143.367 76a2.06 2.06 0 0 1-2.058-2.062 2.06 2.06 0 0 1 2.058-2.062zm-17.836 0a2.06 2.06 0 0 1 2.058 2.062A2.06 2.06 0 0 1 125.531 76a2.06 2.06 0 0 1-2.058-2.062 2.06 2.06 0 0 1 2.058-2.062zm-17.832 0a2.06 2.06 0 0 1 2.057 2.062A2.06 2.06 0 0 1 107.7 76a2.06 2.06 0 0 1-2.058-2.062 2.06 2.06 0 0 1 2.058-2.062zm249.412-.398a2.06 2.06 0 0 1 2.058 2.062 2.06 2.06 0 0 1-2.058 2.062 2.06 2.06 0 0 1-2.058-2.062 2.06 2.06 0 0 1 2.058-2.062zm-71.34 0a2.06 2.06 0 0 1 2.058 2.062 2.06 2.06 0 0 1-2.058 2.062 2.06 2.06 0 0 1-2.058-2.062 2.06 2.06 0 0 1 2.058-2.062zm53.505 0a2.06 2.06 0 0 1 2.058 2.062 2.06 2.06 0 0 1-2.058 2.062 2.06 2.06 0 0 1-2.058-2.062 2.06 2.06 0 0 1 2.058-2.062zm-17.835 0a2.06 2.06 0 0 1 2.058 2.062 2.06 2.06 0 0 1-2.058 2.062 2.06 2.06 0 0 1-2.058-2.062 2.06 2.06 0 0 1 2.058-2.062zm53.505 0a2.06 2.06 0 0 1 2.058 2.062 2.06 2.06 0 0 1-2.058 2.062 2.06 2.06 0 0 1-2.057-2.062 2.06 2.06 0 0 1 2.057-2.062zm-71.34 0a2.06 2.06 0 0 1 2.058 2.062 2.06 2.06 0 0 1-2.058 2.062 2.06 2.06 0 0 1-2.058-2.062 2.06 2.06 0 0 1 2.058-2.062zM91.234 54.007a2.06 2.06 0 0 1 2.057 2.062 2.06 2.06 0 0 1-2.057 2.061 2.06 2.06 0 0 1-2.058-2.061 2.06 2.06 0 0 1 2.058-2.062zm-17.836 0a2.06 2.06 0 0 1 2.058 2.062 2.06 2.06 0 0 1-2.058 2.061 2.06 2.06 0 0 1-2.058-2.061 2.06 2.06 0 0 1 2.058-2.062zm-17.834 0a2.06 2.06 0 0 1 2.057 2.062 2.06 2.06 0 0 1-2.057 2.061 2.06 2.06 0 0 1-2.058-2.061 2.06 2.06 0 0 1 2.058-2.062zm-17.836 0a2.06 2.06 0 0 1 2.058 2.062 2.06 2.06 0 0 1-2.058 2.061 2.06 2.06 0 0 1-2.058-2.061 2.06 2.06 0 0 1 2.058-2.062zm230.487 0a2.06 2.06 0 0 1 2.058 2.062 2.06 2.06 0 0 1-2.058 2.061 2.06 2.06 0 0 1-2.057-2.061 2.06 2.06 0 0 1 2.057-2.062zm-17.835 0a2.06 2.06 0 0 1 2.058 2.062 2.06 2.06 0 0 1-2.058 2.061 2.06 2.06 0 0 1-2.058-2.061 2.06 2.06 0 0 1 2.058-2.062zm-17.836 0a2.06 2.06 0 0 1 2.058 2.062 2.06 2.06 0 0 1-2.058 2.061 2.06 2.06 0 0 1-2.058-2.061 2.06 2.06 0 0 1 2.058-2.062zm-17.835 0a2.06 2.06 0 0 1 2.058 2.062 2.06 2.06 0 0 1-2.058 2.061 2.06 2.06 0 0 1-2.058-2.061 2.06 2.06 0 0 1 2.058-2.062zm-17.836 0a2.06 2.06 0 0 1 2.058 2.062 2.06 2.06 0 0 1-2.058 2.061 2.06 2.06 0 0 1-2.058-2.061 2.06 2.06 0 0 1 2.058-2.062zm-17.835 0a2.06 2.06 0 0 1 2.058 2.062 2.06 2.06 0 0 1-2.058 2.061 2.06 2.06 0 0 1-2.058-2.061 2.06 2.06 0 0 1 2.058-2.062zm-17.836 0a2.06 2.06 0 0 1 2.058 2.062 2.06 2.06 0 0 1-2.058 2.061 2.06 2.06 0 0 1-2.058-2.061 2.06 2.06 0 0 1 2.058-2.062zm-141.309 0a2.06 2.06 0 0 1 2.058 2.062 2.06 2.06 0 0 1-2.058 2.061 2.06 2.06 0 0 1-2.057-2.061 2.06 2.06 0 0 1 2.057-2.062zm123.474 0a2.06 2.06 0 0 1 2.058 2.062 2.06 2.06 0 0 1-2.058 2.061 2.06 2.06 0 0 1-2.058-2.061 2.06 2.06 0 0 1 2.058-2.062zm-141.31 0a2.06 2.06 0 0 1 2.059 2.062 2.06 2.06 0 0 1-2.058 2.061A2.06 2.06 0 0 1 0 56.07a2.06 2.06 0 0 1 2.058-2.062zm123.474 0a2.06 2.06 0 0 1 2.058 2.062 2.06 2.06 0 0 1-2.058 2.061 2.06 2.06 0 0 1-2.058-2.061 2.06 2.06 0 0 1 2.058-2.062zm-17.832 0a2.06 2.06 0 0 1 2.057 2.062 2.06 2.06 0 0 1-2.057 2.061 2.06 2.06 0 0 1-2.058-2.061 2.06 2.06 0 0 1 2.058-2.062zm267.247-.398a2.06 2.06 0 0 1 2.058 2.061 2.06 2.06 0 0 1-2.058 2.062 2.06 2.06 0 0 1-2.057-2.062 2.06 2.06 0 0 1 2.057-2.061zm-17.835 0a2.06 2.06 0 0 1 2.058 2.061 2.06 2.06 0 0 1-2.058 2.062 2.06 2.06 0 0 1-2.058-2.062 2.06 2.06 0 0 1 2.058-2.061zm-17.835 0a2.06 2.06 0 0 1 2.058 2.061 2.06 2.06 0 0 1-2.058 2.062 2.06 2.06 0 0 1-2.058-2.062 2.06 2.06 0 0 1 2.058-2.061zm-17.835 0a2.06 2.06 0 0 1 2.058 2.061 2.06 2.06 0 0 1-2.058 2.062 2.06 2.06 0 0 1-2.058-2.062 2.06 2.06 0 0 1 2.058-2.061zm-17.835 0a2.06 2.06 0 0 1 2.058 2.061 2.06 2.06 0 0 1-2.058 2.062 2.06 2.06 0 0 1-2.058-2.062 2.06 2.06 0 0 1 2.058-2.061zm-17.835 0a2.06 2.06 0 0 1 2.058 2.061 2.06 2.06 0 0 1-2.058 2.062 2.06 2.06 0 0 1-2.058-2.062 2.06 2.06 0 0 1 2.058-2.061zm105.64 0a2.06 2.06 0 0 1 2.058 2.061 2.06 2.06 0 0 1-2.058 2.062 2.06 2.06 0 0 1-2.058-2.062 2.06 2.06 0 0 1 2.058-2.061zM196.873 36.137a2.06 2.06 0 0 1 2.058 2.062 2.06 2.06 0 0 1-2.058 2.062 2.06 2.06 0 0 1-2.058-2.062 2.06 2.06 0 0 1 2.058-2.062zm17.836 0a2.06 2.06 0 0 1 2.058 2.062 2.06 2.06 0 0 1-2.058 2.062 2.06 2.06 0 0 1-2.058-2.062 2.06 2.06 0 0 1 2.058-2.062zm35.67 0a2.06 2.06 0 0 1 2.059 2.062 2.06 2.06 0 0 1-2.058 2.062 2.06 2.06 0 0 1-2.058-2.062 2.06 2.06 0 0 1 2.058-2.062zm-71.341 0a2.06 2.06 0 0 1 2.058 2.062 2.06 2.06 0 0 1-2.058 2.062 2.06 2.06 0 0 1-2.058-2.062 2.06 2.06 0 0 1 2.058-2.062zm89.177 0a2.06 2.06 0 0 1 2.058 2.062 2.06 2.06 0 0 1-2.058 2.062 2.06 2.06 0 0 1-2.057-2.062 2.06 2.06 0 0 1 2.057-2.062zm-248.322 0a2.06 2.06 0 0 1 2.058 2.062 2.06 2.06 0 0 1-2.058 2.062 2.06 2.06 0 0 1-2.057-2.062 2.06 2.06 0 0 1 2.057-2.062zm212.651 0a2.06 2.06 0 0 1 2.058 2.062 2.06 2.06 0 0 1-2.058 2.062 2.06 2.06 0 0 1-2.058-2.062 2.06 2.06 0 0 1 2.058-2.062zm-176.98 0A2.06 2.06 0 0 1 57.62 38.2a2.06 2.06 0 0 1-2.057 2.062 2.06 2.06 0 0 1-2.058-2.062 2.06 2.06 0 0 1 2.058-2.062zm105.638 0a2.06 2.06 0 0 1 2.058 2.062 2.06 2.06 0 0 1-2.058 2.062 2.06 2.06 0 0 1-2.058-2.062 2.06 2.06 0 0 1 2.058-2.062zm-159.144 0A2.06 2.06 0 0 1 4.116 38.2a2.06 2.06 0 0 1-2.058 2.062A2.06 2.06 0 0 1 0 38.199a2.06 2.06 0 0 1 2.058-2.062zm89.176 0A2.06 2.06 0 0 1 93.29 38.2a2.06 2.06 0 0 1-2.057 2.062 2.06 2.06 0 0 1-2.058-2.062 2.06 2.06 0 0 1 2.058-2.062zm52.133 0a2.06 2.06 0 0 1 2.058 2.062 2.06 2.06 0 0 1-2.058 2.062 2.06 2.06 0 0 1-2.058-2.062 2.06 2.06 0 0 1 2.058-2.062zm-105.639 0a2.06 2.06 0 0 1 2.058 2.062 2.06 2.06 0 0 1-2.058 2.062 2.06 2.06 0 0 1-2.058-2.062 2.06 2.06 0 0 1 2.058-2.062zm35.67 0a2.06 2.06 0 0 1 2.058 2.062 2.06 2.06 0 0 1-2.058 2.062 2.06 2.06 0 0 1-2.058-2.062 2.06 2.06 0 0 1 2.058-2.062zm52.133 0a2.06 2.06 0 0 1 2.058 2.062 2.06 2.06 0 0 1-2.058 2.062 2.06 2.06 0 0 1-2.058-2.062 2.06 2.06 0 0 1 2.058-2.062zm-17.832 0a2.06 2.06 0 0 1 2.057 2.062 2.06 2.06 0 0 1-2.057 2.062 2.06 2.06 0 0 1-2.058-2.062 2.06 2.06 0 0 1 2.058-2.062zm195.907-.398a2.06 2.06 0 0 1 2.058 2.062 2.06 2.06 0 0 1-2.058 2.062 2.06 2.06 0 0 1-2.058-2.062 2.06 2.06 0 0 1 2.058-2.062zm71.34 0a2.06 2.06 0 0 1 2.058 2.062 2.06 2.06 0 0 1-2.058 2.062 2.06 2.06 0 0 1-2.057-2.062 2.06 2.06 0 0 1 2.057-2.062zm-89.175 0a2.06 2.06 0 0 1 2.058 2.062 2.06 2.06 0 0 1-2.058 2.062 2.06 2.06 0 0 1-2.058-2.062 2.06 2.06 0 0 1 2.058-2.062zm53.505 0a2.06 2.06 0 0 1 2.058 2.062 2.06 2.06 0 0 1-2.058 2.062 2.06 2.06 0 0 1-2.058-2.062 2.06 2.06 0 0 1 2.058-2.062zm69.968 0a2.06 2.06 0 0 1 2.058 2.062 2.06 2.06 0 0 1-2.058 2.062 2.06 2.06 0 0 1-2.058-2.062 2.06 2.06 0 0 1 2.058-2.062zm-87.803 0a2.06 2.06 0 0 1 2.058 2.062 2.06 2.06 0 0 1-2.058 2.062 2.06 2.06 0 0 1-2.058-2.062 2.06 2.06 0 0 1 2.058-2.062zm69.97 0a2.06 2.06 0 0 1 2.058 2.062 2.06 2.06 0 0 1-2.058 2.062 2.06 2.06 0 0 1-2.058-2.062 2.06 2.06 0 0 1 2.058-2.062zm-34.3 0a2.06 2.06 0 0 1 2.058 2.062 2.06 2.06 0 0 1-2.058 2.062 2.06 2.06 0 0 1-2.058-2.062 2.06 2.06 0 0 1 2.058-2.062zM250.38 18.278a2.06 2.06 0 0 1 2.058 2.061 2.06 2.06 0 0 1-2.058 2.062 2.06 2.06 0 0 1-2.058-2.062 2.06 2.06 0 0 1 2.058-2.061zm-17.836 0a2.06 2.06 0 0 1 2.058 2.061 2.06 2.06 0 0 1-2.058 2.062 2.06 2.06 0 0 1-2.058-2.062 2.06 2.06 0 0 1 2.058-2.061zm35.671 0a2.06 2.06 0 0 1 2.058 2.061 2.06 2.06 0 0 1-2.058 2.062 2.06 2.06 0 0 1-2.057-2.062 2.06 2.06 0 0 1 2.057-2.061zm-107.013 0a2.06 2.06 0 0 1 2.058 2.061 2.06 2.06 0 0 1-2.058 2.062 2.06 2.06 0 0 1-2.058-2.062 2.06 2.06 0 0 1 2.058-2.061zm35.671 0a2.06 2.06 0 0 1 2.058 2.061 2.06 2.06 0 0 1-2.058 2.062 2.06 2.06 0 0 1-2.058-2.062 2.06 2.06 0 0 1 2.058-2.061zm-53.506 0a2.06 2.06 0 0 1 2.058 2.061 2.06 2.06 0 0 1-2.058 2.062 2.06 2.06 0 0 1-2.058-2.062 2.06 2.06 0 0 1 2.058-2.061zm35.67 0a2.06 2.06 0 0 1 2.059 2.061 2.06 2.06 0 0 1-2.058 2.062 2.06 2.06 0 0 1-2.058-2.062 2.06 2.06 0 0 1 2.058-2.061zm-53.506 0a2.06 2.06 0 0 1 2.058 2.061 2.06 2.06 0 0 1-2.058 2.062 2.06 2.06 0 0 1-2.058-2.062 2.06 2.06 0 0 1 2.058-2.061zm89.178 0a2.06 2.06 0 0 1 2.058 2.061 2.06 2.06 0 0 1-2.058 2.062 2.06 2.06 0 0 1-2.058-2.062 2.06 2.06 0 0 1 2.058-2.061zm-107.01 0a2.06 2.06 0 0 1 2.057 2.061 2.06 2.06 0 0 1-2.057 2.062 2.06 2.06 0 0 1-2.058-2.062 2.06 2.06 0 0 1 2.058-2.061zm-52.135-.01a2.06 2.06 0 0 1 2.057 2.062 2.06 2.06 0 0 1-2.057 2.061 2.06 2.06 0 0 1-2.058-2.061 2.06 2.06 0 0 1 2.058-2.062zm-53.506 0a2.06 2.06 0 0 1 2.058 2.062 2.06 2.06 0 0 1-2.058 2.061A2.06 2.06 0 0 1 0 20.33a2.06 2.06 0 0 1 2.058-2.062zm35.67 0a2.06 2.06 0 0 1 2.058 2.062 2.06 2.06 0 0 1-2.058 2.061 2.06 2.06 0 0 1-2.058-2.061 2.06 2.06 0 0 1 2.058-2.062zm53.506 0a2.06 2.06 0 0 1 2.057 2.062 2.06 2.06 0 0 1-2.057 2.061 2.06 2.06 0 0 1-2.058-2.061 2.06 2.06 0 0 1 2.058-2.062zm-71.34 0a2.06 2.06 0 0 1 2.057 2.062 2.06 2.06 0 0 1-2.058 2.061 2.06 2.06 0 0 1-2.057-2.061 2.06 2.06 0 0 1 2.057-2.062zm53.504 0a2.06 2.06 0 0 1 2.058 2.062 2.06 2.06 0 0 1-2.058 2.061 2.06 2.06 0 0 1-2.058-2.061 2.06 2.06 0 0 1 2.058-2.062zm248.043-.398a2.06 2.06 0 0 1 2.058 2.061 2.06 2.06 0 0 1-2.058 2.062 2.06 2.06 0 0 1-2.058-2.062 2.06 2.06 0 0 1 2.058-2.061zm-17.835 0a2.06 2.06 0 0 1 2.058 2.061 2.06 2.06 0 0 1-2.058 2.062 2.06 2.06 0 0 1-2.058-2.062 2.06 2.06 0 0 1 2.058-2.061zm-17.835 0a2.06 2.06 0 0 1 2.058 2.061 2.06 2.06 0 0 1-2.058 2.062 2.06 2.06 0 0 1-2.058-2.062 2.06 2.06 0 0 1 2.058-2.061zm71.34 0a2.06 2.06 0 0 1 2.058 2.061 2.06 2.06 0 0 1-2.058 2.062 2.06 2.06 0 0 1-2.058-2.062 2.06 2.06 0 0 1 2.058-2.061zm-17.835 0a2.06 2.06 0 0 1 2.058 2.061 2.06 2.06 0 0 1-2.058 2.062 2.06 2.06 0 0 1-2.058-2.062 2.06 2.06 0 0 1 2.058-2.061zm69.968 0a2.06 2.06 0 0 1 2.058 2.061 2.06 2.06 0 0 1-2.058 2.062 2.06 2.06 0 0 1-2.058-2.062 2.06 2.06 0 0 1 2.058-2.061zm17.835 0a2.06 2.06 0 0 1 2.058 2.061 2.06 2.06 0 0 1-2.058 2.062 2.06 2.06 0 0 1-2.057-2.062 2.06 2.06 0 0 1 2.057-2.061zm-52.133 0a2.06 2.06 0 0 1 2.058 2.061 2.06 2.06 0 0 1-2.058 2.062 2.06 2.06 0 0 1-2.057-2.062 2.06 2.06 0 0 1 2.057-2.061zm16.465 0a2.06 2.06 0 0 1 2.058 2.061 2.06 2.06 0 0 1-2.058 2.062 2.06 2.06 0 0 1-2.058-2.062 2.06 2.06 0 0 1 2.058-2.061zM179.038.408a2.06 2.06 0 0 1 2.058 2.062 2.06 2.06 0 0 1-2.058 2.062 2.06 2.06 0 0 1-2.058-2.062 2.06 2.06 0 0 1 2.058-2.062zm35.67 0a2.06 2.06 0 0 1 2.059 2.062 2.06 2.06 0 0 1-2.058 2.062 2.06 2.06 0 0 1-2.058-2.062 2.06 2.06 0 0 1 2.058-2.062zm35.672 0a2.06 2.06 0 0 1 2.058 2.062 2.06 2.06 0 0 1-2.058 2.062 2.06 2.06 0 0 1-2.058-2.062A2.06 2.06 0 0 1 250.38.408zm-107.013 0a2.06 2.06 0 0 1 2.058 2.062 2.06 2.06 0 0 1-2.058 2.062 2.06 2.06 0 0 1-2.058-2.062 2.06 2.06 0 0 1 2.058-2.062zm124.848 0a2.06 2.06 0 0 1 2.058 2.062 2.06 2.06 0 0 1-2.058 2.062 2.06 2.06 0 0 1-2.057-2.062 2.06 2.06 0 0 1 2.057-2.062zm-35.67 0a2.06 2.06 0 0 1 2.057 2.062 2.06 2.06 0 0 1-2.058 2.062 2.06 2.06 0 0 1-2.058-2.062 2.06 2.06 0 0 1 2.058-2.062zm-107.014 0a2.06 2.06 0 0 1 2.058 2.062 2.06 2.06 0 0 1-2.058 2.062 2.06 2.06 0 0 1-2.058-2.062 2.06 2.06 0 0 1 2.058-2.062zm71.342 0a2.06 2.06 0 0 1 2.058 2.062 2.06 2.06 0 0 1-2.058 2.062 2.06 2.06 0 0 1-2.058-2.062 2.06 2.06 0 0 1 2.058-2.062zm-35.67 0a2.06 2.06 0 0 1 2.057 2.062 2.06 2.06 0 0 1-2.058 2.062 2.06 2.06 0 0 1-2.058-2.062 2.06 2.06 0 0 1 2.058-2.062zm-53.504 0a2.06 2.06 0 0 1 2.057 2.062 2.06 2.06 0 0 1-2.057 2.062 2.06 2.06 0 0 1-2.058-2.062 2.06 2.06 0 0 1 2.058-2.062zm-34.3-.01a2.06 2.06 0 0 1 2.057 2.062 2.06 2.06 0 0 1-2.058 2.062A2.06 2.06 0 0 1 71.34 2.46 2.06 2.06 0 0 1 73.398.398zm-17.835 0A2.06 2.06 0 0 1 57.62 2.46a2.06 2.06 0 0 1-2.057 2.062 2.06 2.06 0 0 1-2.058-2.062A2.06 2.06 0 0 1 55.564.398zm-17.836 0a2.06 2.06 0 0 1 2.058 2.062 2.06 2.06 0 0 1-2.058 2.062A2.06 2.06 0 0 1 35.67 2.46 2.06 2.06 0 0 1 37.728.398zm-17.835 0a2.06 2.06 0 0 1 2.058 2.062 2.06 2.06 0 0 1-2.058 2.062 2.06 2.06 0 0 1-2.057-2.062A2.06 2.06 0 0 1 19.893.398zm-17.835 0A2.06 2.06 0 0 1 4.116 2.46a2.06 2.06 0 0 1-2.058 2.062A2.06 2.06 0 0 1 0 2.46 2.06 2.06 0 0 1 2.058.398zm89.176 0A2.06 2.06 0 0 1 93.29 2.46a2.06 2.06 0 0 1-2.057 2.062 2.06 2.06 0 0 1-2.058-2.062A2.06 2.06 0 0 1 91.234.398zM374.946 0a2.06 2.06 0 0 1 2.058 2.062 2.06 2.06 0 0 1-2.058 2.062 2.06 2.06 0 0 1-2.057-2.062A2.06 2.06 0 0 1 374.946 0zm-17.835 0a2.06 2.06 0 0 1 2.058 2.062 2.06 2.06 0 0 1-2.058 2.062 2.06 2.06 0 0 1-2.058-2.062A2.06 2.06 0 0 1 357.111 0zm-17.835 0a2.06 2.06 0 0 1 2.058 2.062 2.06 2.06 0 0 1-2.058 2.062 2.06 2.06 0 0 1-2.058-2.062A2.06 2.06 0 0 1 339.276 0zm-17.835 0a2.06 2.06 0 0 1 2.058 2.062 2.06 2.06 0 0 1-2.058 2.062 2.06 2.06 0 0 1-2.058-2.062A2.06 2.06 0 0 1 321.44 0zm-17.835 0a2.06 2.06 0 0 1 2.058 2.062 2.06 2.06 0 0 1-2.058 2.062 2.06 2.06 0 0 1-2.058-2.062A2.06 2.06 0 0 1 303.606 0zm-17.835 0a2.06 2.06 0 0 1 2.058 2.062 2.06 2.06 0 0 1-2.058 2.062 2.06 2.06 0 0 1-2.058-2.062A2.06 2.06 0 0 1 285.77 0zm159.144 0a2.06 2.06 0 0 1 2.058 2.062 2.06 2.06 0 0 1-2.058 2.062 2.06 2.06 0 0 1-2.058-2.062A2.06 2.06 0 0 1 444.915 0zm-17.836 0a2.06 2.06 0 0 1 2.058 2.062 2.06 2.06 0 0 1-2.058 2.062 2.06 2.06 0 0 1-2.057-2.062A2.06 2.06 0 0 1 427.079 0zm-17.835 0a2.06 2.06 0 0 1 2.058 2.062 2.06 2.06 0 0 1-2.058 2.062 2.06 2.06 0 0 1-2.058-2.062A2.06 2.06 0 0 1 409.244 0zM391.41 0a2.06 2.06 0 0 1 2.058 2.062 2.06 2.06 0 0 1-2.058 2.062 2.06 2.06 0 0 1-2.058-2.062A2.06 2.06 0 0 1 391.411 0z" fill="#FFF" fill-rule="nonzero" opacity=".1"/>
</svg>
