<svg width="281" height="121" viewBox="0 0 281 121" xmlns="http://www.w3.org/2000/svg">
    <defs>
        <linearGradient x1="50%" y1="100%" x2="50%" y2="7.871%" id="a">
            <stop stop-color="#FAFBFB" offset="0%"/>
            <stop stop-color="#B7C6D8" offset="100%"/>
        </linearGradient>
        <linearGradient x1="50%" y1="88.619%" x2="50%" y2="-8.886%" id="b">
            <stop stop-color="#F7F9FA" offset="0%"/>
            <stop stop-color="#AFBACF" offset="100%"/>
        </linearGradient>
    </defs>
    <g fill="none" fill-rule="evenodd">
        <path d="M274.504 0a6 6 0 0 1 6 6v62.501c-3.819 13.4-14.805 20.1-32.96 20.1-18.154 0-29.765-7.33-34.83-21.992-13.405-16.928-26.903-16.928-40.495 0-13.386 16.67-24.006 19.801-31.858 9.393-7.851 10.408-18.47 7.277-31.857-9.393-13.592-16.928-27.09-16.928-40.494 0-3.923 14.662-14.962 21.993-33.117 21.993-18.154 0-29.617-4.367-34.39-13.1V6a6 6 0 0 1 6-6h268.001z" fill="url(#a)"/>
        <path d="M265.38 116.88a2.06 2.06 0 0 1 2.058 2.061 2.06 2.06 0 0 1-2.058 2.062 2.06 2.06 0 0 1-2.058-2.062 2.06 2.06 0 0 1 2.058-2.062zm-248.322-.01a2.06 2.06 0 0 1 2.058 2.061 2.06 2.06 0 0 1-2.058 2.062A2.06 2.06 0 0 1 15 118.931a2.06 2.06 0 0 1 2.058-2.061zM265.38 99.01a2.06 2.06 0 0 1 2.058 2.062 2.06 2.06 0 0 1-2.058 2.061 2.06 2.06 0 0 1-2.058-2.061 2.06 2.06 0 0 1 2.058-2.062zm-17.836 0a2.06 2.06 0 0 1 2.058 2.062 2.06 2.06 0 0 1-2.058 2.061 2.06 2.06 0 0 1-2.058-2.061 2.06 2.06 0 0 1 2.058-2.062zM34.894 99a2.06 2.06 0 0 1 2.057 2.062 2.06 2.06 0 0 1-2.058 2.062 2.06 2.06 0 0 1-2.057-2.062A2.06 2.06 0 0 1 34.893 99zm-17.836 0a2.06 2.06 0 0 1 2.058 2.062 2.06 2.06 0 0 1-2.058 2.062A2.06 2.06 0 0 1 15 101.062 2.06 2.06 0 0 1 17.058 99zm35.67-17.522a2.06 2.06 0 0 1 2.058 2.062 2.06 2.06 0 0 1-2.058 2.062 2.06 2.06 0 0 1-2.058-2.062 2.06 2.06 0 0 1 2.058-2.062zm-17.835 0a2.06 2.06 0 0 1 2.058 2.062 2.06 2.06 0 0 1-2.058 2.062 2.06 2.06 0 0 1-2.057-2.062 2.06 2.06 0 0 1 2.057-2.062zm-17.835 0a2.06 2.06 0 0 1 2.058 2.062 2.06 2.06 0 0 1-2.058 2.062A2.06 2.06 0 0 1 15 83.54a2.06 2.06 0 0 1 2.058-2.062zm248.322 0a2.06 2.06 0 0 1 2.058 2.062 2.06 2.06 0 0 1-2.058 2.062 2.06 2.06 0 0 1-2.058-2.062 2.06 2.06 0 0 1 2.058-2.062zm-17.836 0a2.06 2.06 0 0 1 2.058 2.062 2.06 2.06 0 0 1-2.058 2.062 2.06 2.06 0 0 1-2.058-2.062 2.06 2.06 0 0 1 2.058-2.062zm-17.835 0a2.06 2.06 0 0 1 2.058 2.062 2.06 2.06 0 0 1-2.058 2.062 2.06 2.06 0 0 1-2.058-2.062 2.06 2.06 0 0 1 2.058-2.062zm-141.31-17.87a2.06 2.06 0 0 1 2.057 2.062 2.06 2.06 0 0 1-2.058 2.062 2.06 2.06 0 0 1-2.058-2.062 2.06 2.06 0 0 1 2.058-2.061zm-17.835 0a2.06 2.06 0 0 1 2.057 2.062 2.06 2.06 0 0 1-2.057 2.062 2.06 2.06 0 0 1-2.058-2.062 2.06 2.06 0 0 1 2.058-2.061zm-17.836 0a2.06 2.06 0 0 1 2.058 2.062 2.06 2.06 0 0 1-2.058 2.062 2.06 2.06 0 0 1-2.058-2.062 2.06 2.06 0 0 1 2.058-2.061zm-17.835 0a2.06 2.06 0 0 1 2.058 2.062 2.06 2.06 0 0 1-2.058 2.062 2.06 2.06 0 0 1-2.057-2.062 2.06 2.06 0 0 1 2.057-2.061zm-17.835 0a2.06 2.06 0 0 1 2.058 2.062 2.06 2.06 0 0 1-2.058 2.062A2.06 2.06 0 0 1 15 65.67a2.06 2.06 0 0 1 2.058-2.061zm248.322 0a2.06 2.06 0 0 1 2.058 2.062 2.06 2.06 0 0 1-2.058 2.062 2.06 2.06 0 0 1-2.058-2.062 2.06 2.06 0 0 1 2.058-2.061zm-17.836 0a2.06 2.06 0 0 1 2.058 2.062 2.06 2.06 0 0 1-2.058 2.062 2.06 2.06 0 0 1-2.058-2.062 2.06 2.06 0 0 1 2.058-2.061zm-17.835 0a2.06 2.06 0 0 1 2.058 2.062 2.06 2.06 0 0 1-2.058 2.062 2.06 2.06 0 0 1-2.058-2.062 2.06 2.06 0 0 1 2.058-2.061zm-17.836 0a2.06 2.06 0 0 1 2.058 2.062 2.06 2.06 0 0 1-2.058 2.062 2.06 2.06 0 0 1-2.058-2.062 2.06 2.06 0 0 1 2.058-2.061zm-17.835 0a2.06 2.06 0 0 1 2.058 2.062 2.06 2.06 0 0 1-2.058 2.062 2.06 2.06 0 0 1-2.058-2.062 2.06 2.06 0 0 1 2.058-2.061zM70.564 45.74a2.06 2.06 0 0 1 2.057 2.062 2.06 2.06 0 0 1-2.057 2.062 2.06 2.06 0 0 1-2.058-2.062 2.06 2.06 0 0 1 2.058-2.062zm194.816 0a2.06 2.06 0 0 1 2.058 2.062 2.06 2.06 0 0 1-2.058 2.062 2.06 2.06 0 0 1-2.058-2.062 2.06 2.06 0 0 1 2.058-2.062zm-248.322 0a2.06 2.06 0 0 1 2.058 2.062 2.06 2.06 0 0 1-2.058 2.062A2.06 2.06 0 0 1 15 47.8a2.06 2.06 0 0 1 2.058-2.062zm35.67 0a2.06 2.06 0 0 1 2.058 2.062 2.06 2.06 0 0 1-2.058 2.062A2.06 2.06 0 0 1 50.67 47.8a2.06 2.06 0 0 1 2.058-2.062zm53.506 0a2.06 2.06 0 0 1 2.057 2.062 2.06 2.06 0 0 1-2.057 2.062 2.06 2.06 0 0 1-2.058-2.062 2.06 2.06 0 0 1 2.058-2.062zm-17.836 0a2.06 2.06 0 0 1 2.058 2.062 2.06 2.06 0 0 1-2.058 2.062A2.06 2.06 0 0 1 86.34 47.8a2.06 2.06 0 0 1 2.058-2.062zm141.31 0a2.06 2.06 0 0 1 2.059 2.062 2.06 2.06 0 0 1-2.058 2.062 2.06 2.06 0 0 1-2.058-2.062 2.06 2.06 0 0 1 2.058-2.062zm17.836 0a2.06 2.06 0 0 1 2.058 2.062 2.06 2.06 0 0 1-2.058 2.062 2.06 2.06 0 0 1-2.058-2.062 2.06 2.06 0 0 1 2.058-2.062zm-35.67 0a2.06 2.06 0 0 1 2.057 2.062 2.06 2.06 0 0 1-2.058 2.062 2.06 2.06 0 0 1-2.058-2.062 2.06 2.06 0 0 1 2.058-2.062zm-176.98 0a2.06 2.06 0 0 1 2.057 2.062 2.06 2.06 0 0 1-2.058 2.062 2.06 2.06 0 0 1-2.057-2.062 2.06 2.06 0 0 1 2.057-2.062zm159.144 0a2.06 2.06 0 0 1 2.058 2.062 2.06 2.06 0 0 1-2.058 2.062 2.06 2.06 0 0 1-2.058-2.062 2.06 2.06 0 0 1 2.058-2.062zm-17.836 0a2.06 2.06 0 0 1 2.058 2.062 2.06 2.06 0 0 1-2.058 2.062 2.06 2.06 0 0 1-2.058-2.062 2.06 2.06 0 0 1 2.058-2.062zm-17.835 0a2.06 2.06 0 0 1 2.058 2.062 2.06 2.06 0 0 1-2.058 2.062 2.06 2.06 0 0 1-2.058-2.062 2.06 2.06 0 0 1 2.058-2.062zm-35.668 0a2.06 2.06 0 0 1 2.057 2.062 2.06 2.06 0 0 1-2.057 2.062 2.06 2.06 0 0 1-2.058-2.062 2.06 2.06 0 0 1 2.058-2.062zm142.68-17.86a2.06 2.06 0 0 1 2.059 2.062 2.06 2.06 0 0 1-2.058 2.062 2.06 2.06 0 0 1-2.058-2.062 2.06 2.06 0 0 1 2.058-2.062zm-17.835 0a2.06 2.06 0 0 1 2.058 2.062 2.06 2.06 0 0 1-2.058 2.062 2.06 2.06 0 0 1-2.058-2.062 2.06 2.06 0 0 1 2.058-2.062zm-35.67 0a2.06 2.06 0 0 1 2.057 2.062 2.06 2.06 0 0 1-2.058 2.062 2.06 2.06 0 0 1-2.058-2.062 2.06 2.06 0 0 1 2.058-2.062zm17.835 0a2.06 2.06 0 0 1 2.058 2.062 2.06 2.06 0 0 1-2.058 2.062 2.06 2.06 0 0 1-2.058-2.062 2.06 2.06 0 0 1 2.058-2.062zm-35.671 0a2.06 2.06 0 0 1 2.058 2.062 2.06 2.06 0 0 1-2.058 2.062 2.06 2.06 0 0 1-2.058-2.062 2.06 2.06 0 0 1 2.058-2.062zm-17.836 0a2.06 2.06 0 0 1 2.058 2.062 2.06 2.06 0 0 1-2.058 2.062 2.06 2.06 0 0 1-2.058-2.062 2.06 2.06 0 0 1 2.058-2.062zm-17.835 0a2.06 2.06 0 0 1 2.058 2.062 2.06 2.06 0 0 1-2.058 2.062 2.06 2.06 0 0 1-2.058-2.062 2.06 2.06 0 0 1 2.058-2.062zm-17.836 0a2.06 2.06 0 0 1 2.058 2.062 2.06 2.06 0 0 1-2.058 2.062 2.06 2.06 0 0 1-2.058-2.062 2.06 2.06 0 0 1 2.058-2.062zm-17.832 0a2.06 2.06 0 0 1 2.057 2.062 2.06 2.06 0 0 1-2.057 2.062 2.06 2.06 0 0 1-2.058-2.062 2.06 2.06 0 0 1 2.058-2.062zm-16.465-.01a2.06 2.06 0 0 1 2.057 2.062 2.06 2.06 0 0 1-2.057 2.062 2.06 2.06 0 0 1-2.058-2.062 2.06 2.06 0 0 1 2.058-2.061zm-17.836 0a2.06 2.06 0 0 1 2.058 2.062 2.06 2.06 0 0 1-2.058 2.062 2.06 2.06 0 0 1-2.058-2.062 2.06 2.06 0 0 1 2.058-2.061zm-17.834 0a2.06 2.06 0 0 1 2.057 2.062 2.06 2.06 0 0 1-2.057 2.062 2.06 2.06 0 0 1-2.058-2.062 2.06 2.06 0 0 1 2.058-2.061zm-17.836 0a2.06 2.06 0 0 1 2.058 2.062 2.06 2.06 0 0 1-2.058 2.062 2.06 2.06 0 0 1-2.058-2.062 2.06 2.06 0 0 1 2.058-2.061zm-17.835 0a2.06 2.06 0 0 1 2.058 2.062 2.06 2.06 0 0 1-2.058 2.062 2.06 2.06 0 0 1-2.057-2.062 2.06 2.06 0 0 1 2.057-2.061zm-17.835 0a2.06 2.06 0 0 1 2.058 2.062 2.06 2.06 0 0 1-2.058 2.062A2.06 2.06 0 0 1 15 29.931a2.06 2.06 0 0 1 2.058-2.061zM265.38 10.01a2.06 2.06 0 0 1 2.058 2.063 2.06 2.06 0 0 1-2.058 2.061 2.06 2.06 0 0 1-2.058-2.061 2.06 2.06 0 0 1 2.058-2.062zm-17.836 0a2.06 2.06 0 0 1 2.058 2.063 2.06 2.06 0 0 1-2.058 2.061 2.06 2.06 0 0 1-2.058-2.061 2.06 2.06 0 0 1 2.058-2.062zm-17.835 0a2.06 2.06 0 0 1 2.058 2.063 2.06 2.06 0 0 1-2.058 2.061 2.06 2.06 0 0 1-2.058-2.061 2.06 2.06 0 0 1 2.058-2.062zm-17.836 0a2.06 2.06 0 0 1 2.058 2.063 2.06 2.06 0 0 1-2.058 2.061 2.06 2.06 0 0 1-2.058-2.061 2.06 2.06 0 0 1 2.058-2.062zm-17.835 0a2.06 2.06 0 0 1 2.058 2.063 2.06 2.06 0 0 1-2.058 2.061 2.06 2.06 0 0 1-2.058-2.061 2.06 2.06 0 0 1 2.058-2.062zm-17.836 0a2.06 2.06 0 0 1 2.058 2.063 2.06 2.06 0 0 1-2.058 2.061 2.06 2.06 0 0 1-2.058-2.061 2.06 2.06 0 0 1 2.058-2.062zm-17.835 0a2.06 2.06 0 0 1 2.058 2.063 2.06 2.06 0 0 1-2.058 2.061 2.06 2.06 0 0 1-2.058-2.061 2.06 2.06 0 0 1 2.058-2.062zm-17.836 0a2.06 2.06 0 0 1 2.058 2.063 2.06 2.06 0 0 1-2.058 2.061 2.06 2.06 0 0 1-2.058-2.061 2.06 2.06 0 0 1 2.058-2.062zm-17.832 0a2.06 2.06 0 0 1 2.057 2.063 2.06 2.06 0 0 1-2.057 2.061 2.06 2.06 0 0 1-2.058-2.061 2.06 2.06 0 0 1 2.058-2.062zM106.234 10a2.06 2.06 0 0 1 2.057 2.062 2.06 2.06 0 0 1-2.057 2.062 2.06 2.06 0 0 1-2.058-2.062A2.06 2.06 0 0 1 106.234 10zm-17.836 0a2.06 2.06 0 0 1 2.058 2.062 2.06 2.06 0 0 1-2.058 2.062 2.06 2.06 0 0 1-2.058-2.062A2.06 2.06 0 0 1 88.398 10zm-17.834 0a2.06 2.06 0 0 1 2.057 2.062 2.06 2.06 0 0 1-2.057 2.062 2.06 2.06 0 0 1-2.058-2.062A2.06 2.06 0 0 1 70.564 10zm-17.836 0a2.06 2.06 0 0 1 2.058 2.062 2.06 2.06 0 0 1-2.058 2.062 2.06 2.06 0 0 1-2.058-2.062A2.06 2.06 0 0 1 52.728 10zm-17.835 0a2.06 2.06 0 0 1 2.058 2.062 2.06 2.06 0 0 1-2.058 2.062 2.06 2.06 0 0 1-2.057-2.062A2.06 2.06 0 0 1 34.893 10zm-17.835 0a2.06 2.06 0 0 1 2.058 2.062 2.06 2.06 0 0 1-2.058 2.062A2.06 2.06 0 0 1 15 12.062 2.06 2.06 0 0 1 17.058 10z" fill="url(#b)"/>
    </g>
</svg>