<svg width="22" height="22" viewBox="0 0 22 22" xmlns="http://www.w3.org/2000/svg" xmlns:xlink="http://www.w3.org/1999/xlink">
    <defs>
        <linearGradient x1="50%" y1=".206%" x2="50%" y2="100%" id="c">
            <stop stop-color="#FDCF26" offset="0%"/>
            <stop stop-color="#D5A028" offset="100%"/>
        </linearGradient>
        <filter x="-31.2%" y="-25%" width="162.5%" height="162.5%" filterUnits="objectBoundingBox" id="b">
            <feOffset dy="1" in="SourceAlpha" result="shadowOffsetOuter1"/>
            <feGaussianBlur stdDeviation="1.5" in="shadowOffsetOuter1" result="shadowBlurOuter1"/>
            <feColorMatrix values="0 0 0 0 0.839215686 0 0 0 0 0.62745098 0 0 0 0 0.156862745 0 0 0 0.5 0" in="shadowBlurOuter1"/>
        </filter>
        <path d="m9.416.143-.93.595a.901.901 0 0 1-.972 0L6.976.394 6.584.143a.901.901 0 0 0-1.287.345l-.507.98a.901.901 0 0 1-.842.487l-1.103-.052a.898.898 0 0 0-.68.263h.001a.898.898 0 0 0-.263.598.882.882 0 0 0 0 .081l.052 1.103a.901.901 0 0 1-.487.842l-.98.507A.9.9 0 0 0 0 6.093v.012a.9.9 0 0 0 .143.479l.595.93c.19.296.19.676 0 .972l-.595.93a.901.901 0 0 0 .345 1.287l.98.507c.313.161.503.49.487.842-.018.37-.038.74-.052 1.11a.898.898 0 0 0 .814.93v.002a.903.903 0 0 0 .128.003l1.103-.052a.902.902 0 0 1 .842.487l.507.98a.9.9 0 0 0 .796.488h.012a.895.895 0 0 0 .48-.143l.39-.25.539-.345a.901.901 0 0 1 .972 0l.93.595c.15.096.315.142.48.143h.01a.9.9 0 0 0 .797-.488l.507-.98a.901.901 0 0 1 .842-.487l1.103.052a.898.898 0 0 0 .68-.263h-.001c.17-.17.273-.41.263-.671-.014-.37-.034-.74-.051-1.111a.901.901 0 0 1 .486-.842l.98-.507a.901.901 0 0 0 .345-1.287l-.595-.93a.901.901 0 0 1 0-.972l.595-.93a.902.902 0 0 0-.345-1.287l-.98-.507a.901.901 0 0 1-.486-.842l.05-1.103a.897.897 0 0 0-.263-.68v.001a.898.898 0 0 0-.597-.263.91.91 0 0 0-.081 0l-1.103.052a.901.901 0 0 1-.842-.487l-.507-.98A.9.9 0 0 0 9.9 0a.896.896 0 0 0-.485.143" id="a"/>
    </defs>
    <g transform="translate(3 2)" fill="none" fill-rule="evenodd">
        <mask id="d" fill="#fff">
            <use xlink:href="#a"/>
        </mask>
        <use fill="#000" filter="url(#b)" xlink:href="#a"/>
        <use fill="url(#c)" xlink:href="#a"/>
        <path d="M7.227 9.331c-.438-.41-1.147-1.16-1.619-1.638-.472-.444-.776-.068-1.349.546-.64.648 0 .99.91 1.911l1.653 1.673c.607.546 1.113-.273 1.923-1.058l3.305-3.38c1.046-1.023 1.282-1.023.439-1.842-.742-.785-.709-.785-1.89.443-.539.512-3.203 3.243-3.372 3.345z" fill="#FFF" mask="url(#d)"/>
    </g>
</svg>